<svg width="85" height="88" viewBox="0 0 85 88" fill="none" xmlns="http://www.w3.org/2000/svg">
<g clip-path="url(#clip0_2136_1705)">
<path d="M7.38739 22.6468C7.9033 22.655 8.41568 22.5605 8.8947 22.3688C9.37372 22.177 9.8098 21.8919 10.1775 21.5299C10.5453 21.168 10.8373 20.7365 11.0367 20.2606C11.236 19.7847 11.3387 19.2739 11.3387 18.7579C11.3387 18.2419 11.236 17.7311 11.0367 17.2552C10.8373 16.7793 10.5453 16.3478 10.1775 15.9859C9.8098 15.624 9.37372 15.3388 8.8947 15.1471C8.41568 14.9553 7.9033 14.8608 7.38739 14.869C5.26258 14.9012 3.55676 16.633 3.55676 18.7581C3.55676 20.8832 5.26258 22.6147 7.38739 22.6468ZM66.9493 19.3504C67.4642 19.3571 67.9754 19.2614 68.4531 19.0689C68.9308 18.8764 69.3655 18.5909 69.7319 18.2291C70.0984 17.8672 70.3894 17.4362 70.588 16.961C70.7866 16.4858 70.8888 15.9759 70.8887 15.4609C70.8886 14.9459 70.7863 14.436 70.5876 13.9608C70.3889 13.4857 70.0978 13.0547 69.7313 12.693C69.3647 12.3312 68.9299 12.0459 68.4522 11.8535C67.9744 11.6611 67.4632 11.5655 66.9483 11.5723C64.8235 11.6045 63.118 13.3366 63.118 15.4617C63.1183 17.5868 64.8245 19.3186 66.9493 19.3504Z" fill="#FF598B"/>
<path d="M70.1055 69.3154C70.6214 69.3235 71.1338 69.2289 71.6128 69.0371C72.0917 68.8453 72.5278 68.5601 72.8955 68.1981C73.2632 67.8362 73.5552 67.4046 73.7545 66.9287C73.9538 66.4528 74.0563 65.9419 74.0563 65.426C74.0562 64.91 73.9535 64.3992 73.7541 63.9233C73.5547 63.4474 73.2626 63.016 72.8948 62.6541C72.527 62.2922 72.0909 62.0071 71.6118 61.8154C71.1328 61.6237 70.6204 61.5293 70.1045 61.5376C67.9797 61.5697 66.2742 63.3018 66.2745 65.427C66.2749 67.5521 67.9807 69.2835 70.1055 69.3154ZM23.2714 7.77842C23.7864 7.78511 24.2976 7.68946 24.7753 7.49702C25.253 7.30457 25.6877 7.01917 26.0543 6.65738C26.4208 6.29558 26.7118 5.86459 26.9104 5.38942C27.1091 4.91425 27.2114 4.40436 27.2114 3.88934C27.2114 3.37433 27.1091 2.86444 26.9104 2.38927C26.7118 1.9141 26.4208 1.48311 26.0543 1.12131C25.6877 0.759511 25.253 0.474109 24.7753 0.281668C24.2976 0.0892256 23.7864 -0.00642471 23.2714 0.000267349C21.1463 0.0327748 19.4408 1.76421 19.4408 3.88934C19.4408 6.01448 21.1463 7.74624 23.2714 7.77842Z" fill="#FFCD59"/>
<path d="M46.2805 34.7862C45.8193 34.7861 45.3641 34.6809 44.9495 34.4787C44.535 34.2765 44.1719 33.9825 43.8879 33.619C43.6039 33.2556 43.4064 32.8323 43.3104 32.3811C43.2144 31.93 43.2224 31.4629 43.3338 31.0153C43.4553 30.5287 43.5545 30.0401 43.629 29.5525C42.7177 29.9287 41.747 30.1404 40.7618 30.1777C38.9955 30.245 37.4142 29.9472 36.0663 29.2944C34.7454 28.6615 33.6454 27.6459 32.9094 26.3795C31.4597 23.8669 31.5848 20.5617 33.226 17.9588C34.7906 15.4738 37.4408 14.1288 40.3139 14.3485C42.527 14.5215 44.4666 15.3503 46.0201 16.7724C46.3031 15.9741 46.5738 15.12 46.8321 14.2103C48.4191 8.60912 48.9431 2.98468 48.9474 2.92787C48.9833 2.53087 49.0971 2.14483 49.2822 1.79182C49.4674 1.43881 49.7203 1.12574 50.0264 0.870501C50.3326 0.615267 50.6861 0.42287 51.0667 0.304307C51.4473 0.185743 51.8475 0.143337 52.2445 0.179511C53.0461 0.252826 53.7858 0.641363 54.3012 1.25976C54.8165 1.87816 55.0653 2.67583 54.9928 3.47754C54.9708 3.72939 54.4123 9.7262 52.672 15.8681C51.7933 18.9695 50.755 21.5901 49.5789 23.6824C49.6655 24.1487 49.7346 24.6272 49.786 25.118C50.031 27.4858 49.836 30.0348 49.2232 32.488C49.0583 33.1438 48.6793 33.7259 48.1463 34.1421C47.6133 34.5582 46.9567 34.7851 46.2805 34.7862ZM39.6729 20.3949C39.359 20.3949 38.8061 20.4868 38.3608 21.1928C37.9346 21.8692 37.8512 22.7929 38.1677 23.3416C38.5887 24.0715 39.8273 24.1352 40.5286 24.1086C41.3246 24.0784 42.1402 23.5793 42.9381 22.6698C42.8053 22.3914 42.6481 22.1253 42.4686 21.8745C41.8096 20.9593 40.9755 20.4914 39.8424 20.4028C39.7997 20.4001 39.7422 20.3949 39.6729 20.3949Z" fill="#59B2FF"/>
<path d="M37.5516 43.1035C24.9613 33.1792 11.8017 28.8793 8.1589 33.5003C7.81614 33.9398 7.56422 34.4431 7.4178 34.9809C7.39549 35.0462 7.37836 35.1131 7.36657 35.1812V35.189C7.31776 35.3963 7.28131 35.6062 7.25723 35.8185L0.129231 77.5522C-1.01247 84.2546 5.62266 89.621 11.9393 87.1051L50.5939 71.7025C51.2756 71.4313 52.9532 70.395 53.4122 69.823C53.534 69.7039 53.6475 69.5777 53.7528 69.4444C57.3949 64.8227 50.1408 53.0304 37.5516 43.1025V43.1035Z" fill="#FFCD59"/>
<path d="M53.7485 69.4456C57.3933 64.8223 50.1418 53.0277 37.5515 43.1027C24.9613 33.1774 11.8001 28.8796 8.15561 33.5028C4.51116 38.1261 11.762 49.9208 24.3522 59.8457C36.9424 69.771 50.1037 74.0689 53.7485 69.4456Z" fill="#FFCD59"/>
<path d="M51.5504 66.7536C54.541 62.9591 47.9529 52.7777 36.8343 44.0128C25.7158 35.2473 14.2771 31.218 11.2868 35.0115C8.29541 38.806 14.8836 48.9874 26.0021 57.7523C37.1203 66.5178 48.5593 70.5481 51.5504 66.7536Z" fill="#FFCD59"/>
<path d="M38.9221 47.629C39.437 47.6357 39.9482 47.54 40.4259 47.3476C40.9036 47.1552 41.3384 46.8698 41.7049 46.508C42.0714 46.1462 42.3624 45.7152 42.5611 45.24C42.7597 44.7648 42.862 44.2549 42.862 43.7399C42.862 43.2249 42.7597 42.715 42.5611 42.2399C42.3624 41.7647 42.0714 41.3337 41.7049 40.9719C41.3384 40.6101 40.9036 40.3247 40.4259 40.1323C39.9482 39.9398 39.437 39.8442 38.9221 39.8509C36.7973 39.883 35.0914 41.6148 35.0914 43.7399C35.0914 45.8651 36.7973 47.5968 38.9221 47.629Z" fill="#59B2FF"/>
<path d="M59.8965 40.062L59.9251 40.0302C59.9605 39.9921 60.0262 39.9218 60.1208 39.8263C60.4153 39.5333 60.722 39.2528 61.0402 38.9857C62.2091 38.0072 63.4864 37.1666 64.8472 36.4803C68.1728 34.7975 73.1244 33.4243 79.6183 34.9216C81.5698 35.3714 83.516 34.1545 83.9661 32.2034C84.416 30.2523 83.1991 28.3058 81.248 27.856C72.8414 25.9177 66.1576 27.6898 61.5721 30.012C59.7102 30.9514 57.9631 32.1027 56.3653 33.443C55.8859 33.8459 55.4241 34.2695 54.9813 34.7124C54.8095 34.885 54.642 35.0618 54.4789 35.2427L54.4395 35.287L54.4257 35.3028L54.4192 35.31L54.4169 35.3127C54.4159 35.3143 54.4139 35.3159 57.1623 37.6801L54.4139 35.3159C53.1409 36.8336 53.3211 39.0921 54.8188 40.3884C56.3164 41.6848 58.5772 41.5396 59.8965 40.062ZM23.98 14.2009C23.7095 13.7714 23.357 13.3996 22.9426 13.1066C22.5282 12.8137 22.0601 12.6053 21.565 12.4936C21.07 12.3818 20.5577 12.3688 20.0577 12.4553C19.5576 12.5419 19.0795 12.7262 18.6508 12.9978C18.2218 13.2685 17.8503 13.6211 17.5577 14.0355C17.265 14.4498 17.0569 14.9177 16.9451 15.4126C16.8333 15.9074 16.8202 16.4194 16.9064 16.9193C16.9925 17.4192 17.1764 17.8972 17.4473 18.326C17.5875 18.5503 20.461 23.2054 21.0514 29.5808C21.6523 36.0584 19.7491 42.0125 15.3862 47.3516C16.8553 49.2186 18.6232 51.1592 20.6426 53.1002C23.4369 49.8711 25.5394 46.401 26.9208 42.7296C28.6201 38.2127 29.2213 33.4233 28.7087 28.4959C27.8921 20.6567 24.4818 14.9971 23.98 14.2009Z" fill="#FF598B"/>
<path d="M72.3183 51.4137C74.2892 51.9236 75.682 52.4795 76.2839 52.7383C76.9874 53.17 77.8098 53.367 78.6326 53.3009C79.4553 53.2348 80.2357 52.909 80.8612 52.3705C81.2756 52.0125 81.6099 51.5711 81.8422 51.0752C82.0746 50.5793 82.1998 50.04 82.2098 49.4925C82.2236 48.6672 81.9746 47.859 81.4989 47.1846C81.0231 46.5102 80.3453 46.0045 79.5632 45.7406C77.7185 44.9214 70.7288 42.155 61.4891 42.6465C55.2697 42.9772 49.2889 44.6997 43.7141 47.7715C38.4354 50.6808 33.5337 54.8023 29.0837 60.0603C31.2069 61.571 33.4185 62.9534 35.7067 64.2C43.2202 55.6364 51.8892 50.9944 61.5485 50.381C65.1705 50.1612 68.8042 50.5096 72.3183 51.4137Z" fill="#59B2FF"/>
</g>
<defs>
<clipPath id="clip0_2136_1705">
<rect width="84.0597" height="88" fill="white"/>
</clipPath>
</defs>
</svg>
