<svg width="32" height="32" viewBox="0 0 32 32" fill="none" xmlns="http://www.w3.org/2000/svg">
<path fill-rule="evenodd" clip-rule="evenodd" d="M10.6666 3.66666C10.2246 3.66666 9.80067 3.84225 9.48811 4.15481C9.17555 4.46737 8.99996 4.8913 8.99996 5.33332V28.3333H23V5.33332C23 4.8913 22.8244 4.46737 22.5118 4.15481C22.1992 3.84225 21.7753 3.66666 21.3333 3.66666H10.6666ZM25 11V5.33332C25 4.36086 24.6136 3.42823 23.926 2.7406C23.2384 2.05296 22.3058 1.66666 21.3333 1.66666H10.6666C9.69417 1.66666 8.76153 2.05296 8.0739 2.7406C7.38627 3.42823 6.99996 4.36086 6.99996 5.33332V15H5.33329C4.36083 15 3.4282 15.3863 2.74057 16.0739C2.05293 16.7616 1.66663 17.6942 1.66663 18.6667V26.6667C1.66663 27.6391 2.05293 28.5717 2.74057 29.2594C3.4282 29.947 4.36083 30.3333 5.33329 30.3333H26.6666C27.6391 30.3333 28.5717 29.947 29.2593 29.2594C29.947 28.5717 30.3333 27.6391 30.3333 26.6667V14.6667C30.3333 13.6942 29.947 12.7616 29.2593 12.0739C28.5717 11.3863 27.6391 11 26.6666 11H25ZM25 13V28.3333H26.6666C27.1087 28.3333 27.5326 28.1577 27.8451 27.8452C28.1577 27.5326 28.3333 27.1087 28.3333 26.6667V14.6667C28.3333 14.2246 28.1577 13.8007 27.8451 13.4881C27.5326 13.1756 27.1087 13 26.6666 13H25ZM6.99996 17H5.33329C4.89127 17 4.46734 17.1756 4.15478 17.4881C3.84222 17.8007 3.66663 18.2246 3.66663 18.6667V26.6667C3.66663 27.1087 3.84222 27.5326 4.15478 27.8452C4.46734 28.1577 4.89127 28.3333 5.33329 28.3333H6.99996V17ZM12.3333 7.99999C12.3333 7.4477 12.781 6.99999 13.3333 6.99999H18.6666C19.2189 6.99999 19.6666 7.4477 19.6666 7.99999C19.6666 8.55227 19.2189 8.99999 18.6666 8.99999H13.3333C12.781 8.99999 12.3333 8.55227 12.3333 7.99999ZM12.3333 13.3333C12.3333 12.781 12.781 12.3333 13.3333 12.3333H18.6666C19.2189 12.3333 19.6666 12.781 19.6666 13.3333C19.6666 13.8856 19.2189 14.3333 18.6666 14.3333H13.3333C12.781 14.3333 12.3333 13.8856 12.3333 13.3333ZM12.3333 18.6667C12.3333 18.1144 12.781 17.6667 13.3333 17.6667H18.6666C19.2189 17.6667 19.6666 18.1144 19.6666 18.6667C19.6666 19.2189 19.2189 19.6667 18.6666 19.6667H13.3333C12.781 19.6667 12.3333 19.2189 12.3333 18.6667ZM12.3333 24C12.3333 23.4477 12.781 23 13.3333 23H18.6666C19.2189 23 19.6666 23.4477 19.6666 24C19.6666 24.5523 19.2189 25 18.6666 25H13.3333C12.781 25 12.3333 24.5523 12.3333 24Z" fill="white"/>
</svg>
