<svg width="32" height="32" viewBox="0 0 32 32" fill="none" xmlns="http://www.w3.org/2000/svg">
<path fill-rule="evenodd" clip-rule="evenodd" d="M10.6667 1.66666C11.219 1.66666 11.6667 2.11437 11.6667 2.66666V4.33332H20.3333V2.66666C20.3333 2.11437 20.781 1.66666 21.3333 1.66666C21.8856 1.66666 22.3333 2.11437 22.3333 2.66666V4.33332H25.3333C27.3584 4.33332 29 5.97495 29 7.99999V26.6667C29 28.6917 27.3584 30.3333 25.3333 30.3333H6.66667C4.64162 30.3333 3 28.6917 3 26.6667V7.99999C3 5.97495 4.64162 4.33332 6.66667 4.33332H9.66667V2.66666C9.66667 2.11437 10.1144 1.66666 10.6667 1.66666ZM9.66667 6.33332H6.66667C5.74619 6.33332 5 7.07951 5 7.99999V12.3333H27V7.99999C27 7.07951 26.2538 6.33332 25.3333 6.33332H22.3333V7.99999C22.3333 8.55227 21.8856 8.99999 21.3333 8.99999C20.781 8.99999 20.3333 8.55227 20.3333 7.99999V6.33332H11.6667V7.99999C11.6667 8.55227 11.219 8.99999 10.6667 8.99999C10.1144 8.99999 9.66667 8.55227 9.66667 7.99999V6.33332ZM27 14.3333H5V26.6667C5 27.5871 5.74619 28.3333 6.66667 28.3333H25.3333C26.2538 28.3333 27 27.5871 27 26.6667V14.3333Z" fill="white"/>
</svg>
