<svg width="32" height="32" viewBox="0 0 32 32" fill="none" xmlns="http://www.w3.org/2000/svg">
<path fill-rule="evenodd" clip-rule="evenodd" d="M16 3.66666C9.18851 3.66666 3.66669 9.18848 3.66669 16C3.66669 22.8115 9.18851 28.3333 16 28.3333C22.8115 28.3333 28.3333 22.8115 28.3333 16C28.3333 9.18848 22.8115 3.66666 16 3.66666ZM1.66669 16C1.66669 8.08391 8.08394 1.66666 16 1.66666C23.9161 1.66666 30.3333 8.08391 30.3333 16C30.3333 23.9161 23.9161 30.3333 16 30.3333C8.08394 30.3333 1.66669 23.9161 1.66669 16ZM16 9.66666C16.5523 9.66666 17 10.1144 17 10.6667V16C17 16.5523 16.5523 17 16 17C15.4477 17 15 16.5523 15 16V10.6667C15 10.1144 15.4477 9.66666 16 9.66666ZM15 21.3333C15 20.781 15.4477 20.3333 16 20.3333H16.0134C16.5656 20.3333 17.0134 20.781 17.0134 21.3333C17.0134 21.8856 16.5656 22.3333 16.0134 22.3333H16C15.4477 22.3333 15 21.8856 15 21.3333Z" fill="white"/>
</svg>
