<svg width="17" height="16" viewBox="0 0 17 16" fill="none" xmlns="http://www.w3.org/2000/svg">
<path fill-rule="evenodd" clip-rule="evenodd" d="M8.49992 1.83334C5.09416 1.83334 2.33325 4.59425 2.33325 8.00001C2.33325 11.4058 5.09416 14.1667 8.49992 14.1667C11.9057 14.1667 14.6666 11.4058 14.6666 8.00001C14.6666 4.59425 11.9057 1.83334 8.49992 1.83334ZM1.33325 8.00001C1.33325 4.04197 4.54188 0.833344 8.49992 0.833344C12.458 0.833344 15.6666 4.04197 15.6666 8.00001C15.6666 11.958 12.458 15.1667 8.49992 15.1667C4.54188 15.1667 1.33325 11.958 1.33325 8.00001ZM8.49992 4.83334C8.77606 4.83334 8.99992 5.0572 8.99992 5.33334V8.00001C8.99992 8.27615 8.77606 8.50001 8.49992 8.50001C8.22378 8.50001 7.99992 8.27615 7.99992 8.00001V5.33334C7.99992 5.0572 8.22378 4.83334 8.49992 4.83334ZM7.99992 10.6667C7.99992 10.3905 8.22378 10.1667 8.49992 10.1667H8.50658C8.78273 10.1667 9.00658 10.3905 9.00658 10.6667C9.00658 10.9428 8.78273 11.1667 8.50658 11.1667H8.49992C8.22378 11.1667 7.99992 10.9428 7.99992 10.6667Z" fill="#FF5959"/>
</svg>
