<svg width="32" height="32" viewBox="0 0 32 32" fill="none" xmlns="http://www.w3.org/2000/svg">
<path fill-rule="evenodd" clip-rule="evenodd" d="M10.6667 1.66666C11.219 1.66666 11.6667 2.11437 11.6667 2.66666V4.33332H20.3333V2.66666C20.3333 2.11437 20.781 1.66666 21.3333 1.66666C21.8856 1.66666 22.3333 2.11437 22.3333 2.66666V4.33332H25.3333C27.3584 4.33332 29 5.97495 29 7.99999V26.6667C29 28.6917 27.3584 30.3333 25.3333 30.3333H6.66667C4.64162 30.3333 3 28.6917 3 26.6667V7.99999C3 5.97495 4.64162 4.33332 6.66667 4.33332H9.66667V2.66666C9.66667 2.11437 10.1144 1.66666 10.6667 1.66666ZM6.66667 6.33332C5.74619 6.33332 5 7.07951 5 7.99999V26.6667C5 27.5871 5.74619 28.3333 6.66667 28.3333H25.3333C26.2538 28.3333 27 27.5871 27 26.6667V7.99999C27 7.07951 26.2538 6.33332 25.3333 6.33332H6.66667ZM16 11.6667C15.0795 11.6667 14.3333 12.4128 14.3333 13.3333C14.3333 14.2538 15.0795 15 16 15C16.9205 15 17.6667 14.2538 17.6667 13.3333C17.6667 12.4128 16.9205 11.6667 16 11.6667ZM12.3333 13.3333C12.3333 11.3083 13.975 9.66666 16 9.66666C18.025 9.66666 19.6667 11.3083 19.6667 13.3333C19.6667 15.3584 18.025 17 16 17C13.975 17 12.3333 15.3584 12.3333 13.3333ZM9.40728 21.4073C10.0949 20.7196 11.0275 20.3333 12 20.3333H20C20.9725 20.3333 21.9051 20.7196 22.5927 21.4073C23.2804 22.0949 23.6667 23.0275 23.6667 24C23.6667 24.5523 23.219 25 22.6667 25C22.1144 25 21.6667 24.5523 21.6667 24C21.6667 23.558 21.4911 23.134 21.1785 22.8215C20.866 22.5089 20.442 22.3333 20 22.3333H12C11.558 22.3333 11.1341 22.5089 10.8215 22.8215C10.5089 23.134 10.3333 23.558 10.3333 24C10.3333 24.5523 9.88562 25 9.33333 25C8.78105 25 8.33333 24.5523 8.33333 24C8.33333 23.0275 8.71964 22.0949 9.40728 21.4073Z" fill="white"/>
</svg>
