<svg width="32" height="32" viewBox="0 0 32 32" fill="none" xmlns="http://www.w3.org/2000/svg">
<path fill-rule="evenodd" clip-rule="evenodd" d="M9.33335 3.66666C9.24495 3.66666 9.16016 3.70178 9.09765 3.76429C9.03514 3.8268 9.00002 3.91158 9.00002 3.99999V15H23V3.99999C23 3.91158 22.9649 3.8268 22.9024 3.76429C22.8399 3.70178 22.7551 3.66666 22.6667 3.66666H19.6667V7.99999C19.6667 8.55227 19.219 8.99999 18.6667 8.99999C18.1144 8.99999 17.6667 8.55227 17.6667 7.99999V3.66666H14.3334V5.33332C14.3334 5.88561 13.8856 6.33332 13.3334 6.33332C12.7811 6.33332 12.3334 5.88561 12.3334 5.33332V3.66666H9.33335ZM9.33335 1.66666C8.71451 1.66666 8.12102 1.91249 7.68344 2.35007C7.24585 2.78766 7.00002 3.38115 7.00002 3.99999V15.2251C6.76099 15.3385 6.54075 15.4928 6.3501 15.6834C5.91252 16.121 5.66669 16.7145 5.66669 17.3333V18.6667C5.66669 19.6391 6.053 20.5717 6.74063 21.2594C7.42826 21.947 8.36089 22.3333 9.33335 22.3333H12C12.0884 22.3333 12.1732 22.3684 12.2357 22.431C12.2982 22.4935 12.3334 22.5782 12.3334 22.6667V26.5333C12.3334 27.5058 12.7197 28.4384 13.4073 29.126C14.0949 29.8137 15.0276 30.2 16 30.2C16.9725 30.2 17.9051 29.8137 18.5927 29.126C19.2804 28.4384 19.6667 27.5058 19.6667 26.5333V22.6667C19.6667 22.5782 19.7018 22.4935 19.7643 22.431C19.8268 22.3684 19.9116 22.3333 20 22.3333H22.6667C23.6391 22.3333 24.5718 21.947 25.2594 21.2594C25.947 20.5717 26.3334 19.6391 26.3334 18.6667V17.3333C26.3334 16.7145 26.0875 16.121 25.6499 15.6834C25.4593 15.4928 25.2391 15.3385 25 15.2251V3.99999C25 3.38115 24.7542 2.78766 24.3166 2.35007C23.879 1.91249 23.2855 1.66666 22.6667 1.66666H9.33335ZM8.00002 17C7.91162 17 7.82683 17.0351 7.76432 17.0976C7.70181 17.1601 7.66669 17.2449 7.66669 17.3333V18.6667C7.66669 19.1087 7.84228 19.5326 8.15484 19.8452C8.4674 20.1577 8.89133 20.3333 9.33335 20.3333H12C12.6189 20.3333 13.2123 20.5792 13.6499 21.0167C14.0875 21.4543 14.3334 22.0478 14.3334 22.6667V26.5333C14.3334 26.9753 14.5089 27.3993 14.8215 27.7118C15.1341 28.0244 15.558 28.2 16 28.2C16.442 28.2 16.866 28.0244 17.1785 27.7118C17.4911 27.3993 17.6667 26.9753 17.6667 26.5333V22.6667C17.6667 22.0478 17.9125 21.4543 18.3501 21.0167C18.7877 20.5792 19.3812 20.3333 20 20.3333H22.6667C23.1087 20.3333 23.5326 20.1577 23.8452 19.8452C24.1578 19.5326 24.3334 19.1087 24.3334 18.6667V17.3333C24.3334 17.2449 24.2982 17.1601 24.2357 17.0976C24.1732 17.0351 24.0884 17 24 17H8.00002Z" fill="white"/>
</svg>
