<svg width="32" height="32" viewBox="0 0 32 32" fill="none" xmlns="http://www.w3.org/2000/svg">
<path fill-rule="evenodd" clip-rule="evenodd" d="M2.74063 6.7406C3.42826 6.05296 4.36089 5.66666 5.33335 5.66666H26.6667C27.6391 5.66666 28.5718 6.05296 29.2594 6.7406C29.947 7.42823 30.3334 8.36086 30.3334 9.33332V12C30.3334 12.5523 29.8856 13 29.3334 13C28.5377 13 27.7746 13.3161 27.212 13.8787C26.6494 14.4413 26.3334 15.2043 26.3334 16C26.3334 16.7956 26.6494 17.5587 27.212 18.1213C27.7746 18.6839 28.5377 19 29.3334 19C29.8856 19 30.3334 19.4477 30.3334 20V22.6667C30.3334 23.6391 29.947 24.5717 29.2594 25.2594C28.5718 25.947 27.6391 26.3333 26.6667 26.3333H5.33335C4.36089 26.3333 3.42826 25.947 2.74063 25.2594C2.053 24.5717 1.66669 23.6391 1.66669 22.6667V20C1.66669 19.4477 2.1144 19 2.66669 19C3.46234 19 4.2254 18.6839 4.78801 18.1213C5.35062 17.5587 5.66669 16.7956 5.66669 16C5.66669 15.2043 5.35062 14.4413 4.78801 13.8787C4.2254 13.3161 3.46234 13 2.66669 13C2.1144 13 1.66669 12.5523 1.66669 12V9.33332C1.66669 8.36086 2.053 7.42823 2.74063 6.7406ZM18.3334 24.3333V22.6667C18.3334 22.1144 17.8856 21.6667 17.3334 21.6667C16.7811 21.6667 16.3334 22.1144 16.3334 22.6667V24.3333H5.33335C4.89133 24.3333 4.4674 24.1577 4.15484 23.8452C3.84228 23.5326 3.66669 23.1087 3.66669 22.6667V20.899C4.62013 20.7044 5.50384 20.2339 6.20222 19.5355C7.1399 18.5978 7.66669 17.3261 7.66669 16C7.66669 14.6739 7.1399 13.4021 6.20222 12.4645C5.50384 11.7661 4.62013 11.2956 3.66669 11.101V9.33332C3.66669 8.8913 3.84228 8.46737 4.15484 8.15481C4.4674 7.84225 4.89133 7.66666 5.33335 7.66666H16.3334V9.33332C16.3334 9.88561 16.7811 10.3333 17.3334 10.3333C17.8856 10.3333 18.3334 9.88561 18.3334 9.33332V7.66666H26.6667C27.1087 7.66666 27.5326 7.84225 27.8452 8.15481C28.1578 8.46737 28.3334 8.8913 28.3334 9.33332V11.101C27.3799 11.2956 26.4962 11.7661 25.7978 12.4645C24.8601 13.4021 24.3334 14.6739 24.3334 16C24.3334 17.3261 24.8601 18.5978 25.7978 19.5355C26.4962 20.2339 27.3799 20.7044 28.3334 20.899V22.6667C28.3334 23.1087 28.1578 23.5326 27.8452 23.8452C27.5326 24.1577 27.1087 24.3333 26.6667 24.3333H18.3334ZM17.3334 13.6667C17.8856 13.6667 18.3334 14.1144 18.3334 14.6667V17.3333C18.3334 17.8856 17.8856 18.3333 17.3334 18.3333C16.7811 18.3333 16.3334 17.8856 16.3334 17.3333V14.6667C16.3334 14.1144 16.7811 13.6667 17.3334 13.6667Z" fill="white"/>
</svg>
